<?xml version="1.0" encoding="iso-8859-1"?>
<!-- Generator: Adobe Illustrator 18.0.0, SVG Export Plug-In . SVG Version: 6.00 Build 0)  -->
<!DOCTYPE svg PUBLIC "-//W3C//DTD SVG 1.1//EN" "http://www.w3.org/Graphics/SVG/1.1/DTD/svg11.dtd">
<svg version="1.1" id="Capa_1" xmlns="http://www.w3.org/2000/svg" xmlns:xlink="http://www.w3.org/1999/xlink" x="0px" y="0px"
	 viewBox="0 0 346.292 346.292" style="enable-background:new 0 0 346.292 346.292;" xml:space="preserve">
<g>
	<g>
		<g>
			<g>
				<path d="M96.161,168.248c-4.143,0-7.5-3.357-7.5-7.5v-11.166c0-4.143,3.357-7.5,7.5-7.5s7.5,3.357,7.5,7.5v11.166
					C103.661,164.89,100.303,168.248,96.161,168.248z"/>
			</g>
			<g>
				<path d="M147.485,168.248c-4.143,0-7.5-3.357-7.5-7.5v-11.166c0-4.143,3.357-7.5,7.5-7.5c4.143,0,7.5,3.357,7.5,7.5v11.166
					C154.985,164.89,151.627,168.248,147.485,168.248z"/>
			</g>
			<g>
				<path d="M198.809,168.248c-4.143,0-7.5-3.357-7.5-7.5v-11.166c0-4.143,3.357-7.5,7.5-7.5c4.143,0,7.5,3.357,7.5,7.5v11.166
					C206.309,164.89,202.952,168.248,198.809,168.248z"/>
			</g>
			<g>
				<path d="M250.132,168.248c-4.143,0-7.5-3.357-7.5-7.5v-11.166c0-4.143,3.357-7.5,7.5-7.5c4.143,0,7.5,3.357,7.5,7.5v11.166
					C257.632,164.89,254.275,168.248,250.132,168.248z"/>
			</g>
		</g>
		<g>
			<g>
				<path d="M121.823,224.83c-4.143,0-7.5-3.357-7.5-7.5v-11.166c0-4.143,3.357-7.5,7.5-7.5c4.143,0,7.5,3.357,7.5,7.5v11.166
					C129.323,221.472,125.965,224.83,121.823,224.83z"/>
			</g>
			<g>
				<path d="M173.146,224.83c-4.143,0-7.5-3.357-7.5-7.5v-11.166c0-4.143,3.357-7.5,7.5-7.5c4.143,0,7.5,3.357,7.5,7.5v11.166
					C180.646,221.472,177.288,224.83,173.146,224.83z"/>
			</g>
			<g>
				<path d="M224.468,224.83c-4.143,0-7.5-3.357-7.5-7.5v-11.166c0-4.143,3.357-7.5,7.5-7.5c4.143,0,7.5,3.357,7.5,7.5v11.166
					C231.968,221.472,228.611,224.83,224.468,224.83z"/>
			</g>
		</g>
		<g>
			<g>
				<path d="M147.485,281.414c-4.143,0-7.5-3.357-7.5-7.5v-11.166c0-4.143,3.357-7.5,7.5-7.5c4.143,0,7.5,3.357,7.5,7.5v11.166
					C154.985,278.056,151.627,281.414,147.485,281.414z"/>
			</g>
			<g>
				<path d="M198.809,281.414c-4.143,0-7.5-3.357-7.5-7.5v-11.166c0-4.143,3.357-7.5,7.5-7.5c4.143,0,7.5,3.357,7.5,7.5v11.166
					C206.309,278.056,202.952,281.414,198.809,281.414z"/>
			</g>
		</g>
	</g>
	<path d="M270.625,114.273c-2.445-2.029-4.883-3.695-7.221-5.066c7.428-5.87,14.051-14.922,18.592-30.313
		c0.435-1.476,0.406-3.05-0.084-4.508c-0.232-0.697-5.908-17.15-21.641-24.097c-7.293-3.22-15.352-3.878-24.057-1.971
		c0.27-13.893-2.271-36.264-19.639-47.168c-1.348-0.847-2.936-1.246-4.515-1.13c-10.084,0.71-28.12,6.934-38.917,24.381
		C162.346,6.958,144.317,0.73,134.233,0.02c-1.582-0.117-3.169,0.283-4.516,1.13c-17.366,10.904-19.907,33.275-19.639,47.168
		c-8.704-1.904-16.762-1.249-24.057,1.971C70.29,57.235,64.614,73.688,64.38,74.385c-0.489,1.459-0.518,3.032-0.083,4.508
		c4.543,15.396,11.169,24.448,18.6,30.319c-2.336,1.37-4.772,3.033-7.214,5.06c-10.453,8.673-22.914,25.849-22.914,58.425
		c0,38.697,14.154,69.4,43.271,93.863c6.876,5.777,12.794,16.573,19.058,28.004c12.018,21.925,26.973,49.211,57.411,51.715
		c0.21,0.017,1.064,0.017,1.274,0c30.44-2.504,45.395-29.791,57.412-51.716c6.266-11.43,12.182-22.226,19.059-28.003
		c29.115-24.465,43.269-55.168,43.269-93.863C293.523,140.122,281.07,122.946,270.625,114.273z M92.081,64.01
		c6.37-2.813,14.229-2.194,23.363,1.836c2.524,1.113,5.455,0.745,7.631-0.948c2.178-1.693,3.248-4.452,2.79-7.172
		c-1.465-8.699-2.336-32.333,9.762-42.375c6.789,1.321,25.246,7.069,30.176,30.898c0.84,4.057,4.81,6.657,8.864,5.825
		c3.021-0.626,5.235-2.986,5.824-5.826l0.001,0.001c0.004-0.018,0.008-0.033,0.012-0.051c0.001-0.004,0.002-0.008,0.003-0.013
		c4.954-23.799,23.417-29.527,30.158-30.837c12.103,10.039,11.228,33.676,9.765,42.364c-0.469,2.724,0.598,5.482,2.777,7.183
		c2.178,1.701,5.113,2.066,7.641,0.95c9.084-4.009,16.908-4.64,23.258-1.883c7.111,3.091,11.102,9.828,12.723,13.195
		c-4.99,15.226-11.932,21.265-21.842,25.472c-18.449-4.293-44.448-6.746-71.918-6.746c-27.421,0-53.375,2.443-71.815,6.723
		c-9.883-4.206-16.807-10.251-21.789-25.453C81.071,73.803,85.022,67.126,92.081,64.01z M240.603,255.076
		c-9.029,7.586-15.602,19.58-22.563,32.277c-11.25,20.529-22.888,41.738-44.896,43.91c-22.005-2.171-33.643-23.381-44.894-43.909
		c-6.96-12.698-13.533-24.691-22.563-32.278c-25.87-21.736-37.92-47.912-37.92-82.379c0-49.631,32.469-54.608,33.792-54.789
		c0.364-0.043,34.788-6.694,71.507-7.023c37.776-0.339,71.422,7.012,71.822,7.045c3.004,0.479,33.633,6.545,33.633,54.768
		C278.523,207.162,266.474,233.338,240.603,255.076z"/>
</g>
<g>
</g>
<g>
</g>
<g>
</g>
<g>
</g>
<g>
</g>
<g>
</g>
<g>
</g>
<g>
</g>
<g>
</g>
<g>
</g>
<g>
</g>
<g>
</g>
<g>
</g>
<g>
</g>
<g>
</g>
</svg>
